<?xml version="1.0" encoding="UTF-8"?>
<svg id="Layer_1" xmlns="http://www.w3.org/2000/svg" version="1.1" viewBox="0 0 863.04 398.64">
  <!-- Generator: Adobe Illustrator 30.2.1, SVG Export Plug-In . SVG Version: 2.1.1 Build 1)  -->
  <defs>
    <style>
      .st0 {
        fill: #fff;
      }
    </style>
  </defs>
  <g>
    <path class="st0" d="M601.14,153.87l-27.13.03v13.63s36.51.02,36.51.02c1.4,0,2.35.89,2.34,2.27l-.1,14.3c-.01,1.53-1.27,2.39-2.74,2.39l-55.51-.05c-1.37,0-1.94-1.11-1.94-2.31l.02-76.57c0-1.34.98-2.15,2.31-2.15h54.62c1.14,0,2.07,1.02,2.07,2.04v14.43c.01.99-.84,2.4-2.06,2.4l-35.51.1v13.13s27.36.06,27.36.06c1.16,0,2.07.8,2.07,1.97v12.06c-.01,1.23-.87,2.25-2.32,2.25Z"/>
    <path class="st0" d="M503.05,129.82c-8.66,8.27-9.08,21.94-1.33,30.74,7.07,8.03,18.84,8.74,27.29,2.63.69-.5,1.3-.65,2.03-.62s1.3.64,1.82,1.4l8.8,12.75c.52.76.63,2.52-.24,3.15-17.33,12.43-41.15,9.79-55.35-5.77-14.23-15.59-14.49-39.64-.59-55.63,13.78-15.86,37.74-19.09,55.32-6.91,1.12.78,1.47,2.43.66,3.57l-9.54,13.45c-.77,1.09-2.29.32-3.18-.28-7.84-5.35-18.45-5.4-25.7,1.52Z"/>
    <g>
      <path class="st0" d="M390.26,186.31l-30.56.19c-1.3,0-1.99-1.16-1.99-2.35l.02-76.57c0-1.27,1.05-2.21,2.24-2.2l30.3.17c9.76.05,18.84,4.46,25.94,11.06,12.82,11.92,16.32,30.91,8.79,46.79-6.4,13.49-19.62,22.82-34.75,22.91ZM404.3,157.27c4.33-6.57,4.53-14.73.61-21.65-3.24-5.72-9.72-9.96-17.06-10.43-2.93-.19-5.64-.15-8.75,0l-.02,41.42c9.29.8,19.43-.56,25.21-9.34Z"/>
      <path class="st0" d="M460.31,186.49l-16.71-.02c-1.35,0-2.12-.91-2.12-2.32v-76.6c.14-1.22.9-2.09,2.07-2.1l16.29-.04c1.76,0,2.99,1.13,2.99,3.05v75.19c0,1.7-.94,2.83-2.52,2.83Z"/>
    </g>
  </g>
  <path class="st0" d="M533.37,245.91c-1.14,17.17-15.09,29.77-31.37,30.68-16.72.93-31.35-10.71-34.47-26.68-3.27-16.76,6.39-32.96,22.16-38.17s33.85,2.29,40.86,17.88c2.32,5.16,3.23,10.28,2.83,16.3ZM495.87,219.06c-13.87,2.56-22.49,15.63-19.89,28.86s15.34,21.94,28.47,19.52c13.23-2.43,22.29-15.19,19.89-28.49s-14.88-22.4-28.47-19.89Z"/>
  <path class="st0" d="M448.92,273.87l-10.3-21.59-19.34-.06-.33,22.57c.14,1.3-8.46,1.48-8.37-.23l-.08-61.51c0-1.04.72-2.14,1.86-2.13l27.75.26c9.25.09,16.27,8.1,17.84,16.47,1.75,9.33-2.65,18.3-11.09,22.56l11.35,23.34c.52,1.07-.8,2.27-1.74,2.13l-4.78.05c-1.27.01-2.14-.56-2.77-1.87ZM437.59,243.75c7.09,0,12.1-5.72,12.08-12.3s-5.35-12.03-12.03-12.03h-18.49s.02,24.34.02,24.34l18.41-.02Z"/>
  <path class="st0" d="M603.58,245.97l-26.7.03v21.04s36.81.14,36.81.14c.31,3.12,1.54,8.53-1.78,8.53h-41.57c-1.07,0-2.12-.66-2.12-1.87v-60.82c0-.8.32-1.44.64-1.68.44-.34,1.11-.41,1.88-.4l42.66.1c.99,2.83,1.08,5.82-.13,8.49l-36.37.1v17.45s27.35.07,27.35.07c1.31,0,2.15.96,2.14,2.21l-.04,4.38c-.01,1.46-1.08,2.3-2.76,2.25Z"/>
  <path class="st0" d="M775.42,270.84c-11.09,9.11-30.29,7.24-40.65-4.94-.75-.88-1.46-2.27-.6-3.32.94-1.13,2.29-1.83,3.34-2.9s2.77-.9,3.71.23c2.3,2.77,5.16,4.55,8.4,6.08,6.23,2.94,13.28,2.86,19.14-.84,3.73-2.36,6.02-6.64,4.47-10.93-3.27-9.02-31.12-8.16-36.27-20.32-3.66-8.64.77-18,9.36-21.66,11.25-4.79,24.28-1.81,32.79,6.94,1.04,1.07.8,2.48-.1,3.32l-2.52,2.34c-3.58,3.33-4.8-3.19-14.44-5.83-4.67-1.28-9.79-.72-13.66,2.07-3.35,2.41-4.93,7.17-2.18,10.41,6.17,7.27,30.02,6.64,34.98,19.1,2.87,7.23.19,15.37-5.76,20.25Z"/>
  <path class="st0" d="M365.62,273.12c0,1.9-1.13,2.73-2.73,2.62-1.97-.14-3.81.36-5.84-.6l-.06-62.55c0-.85.74-1.7,1.59-1.69l24.43.26c10.61.11,17.9,10.21,17.77,20.27-.14,10.09-7.75,19.64-18.25,19.74l-16.85.16-.06,21.78ZM392.08,230.98c-.07-6.72-5.74-11.51-11.92-11.59-5.02-.06-9.66-.14-14.51.07l.03,23.35h14.53c6.28,0,11.95-5.05,11.88-11.83Z"/>
  <path class="st0" d="M633.5,227.1c-8.6,9.16-8.65,22.95-.81,32.12s21.73,11.4,32.28,4.33c1.01-.68,2.84-1.83,3.88-.93.36.32,4.79,5.83,2.95,7.23-13.74,10.46-33.05,8.55-44.6-3.8-11.62-12.43-11.85-31.89-.68-44.64s30.5-15.18,44.59-5.16c1.2.86,1.59,1.99.76,3.34l-2.39,3.9c-.4.65-1.83.97-2.57.42-10.38-7.74-24.35-6.46-33.41,3.18Z"/>
  <path class="st0" d="M708.11,272.61c0,1.42-.24,2.22-.93,2.68-.82.54-6.38.93-7.61-.46l-.12-55.18-18.25-.07c-1.05,0-1.85-.72-1.87-1.77l-.02-4.84c0-1,.66-2.01,1.89-2.01l45.45.09c1.71,0,1.77,2.68,1.62,3.81.05,1.39.28,3.75-.93,4.49l-19.15.27-.06,52.98Z"/>
  <path class="st0" d="M525.5,284.08c.91-1.2,2.02-2.09,2.89-3.05,3.14-3.5,5.15,4.55,12.07,1.8,2.46-.98,4.44-3.38,4.44-6.57l.02-63.21c0-3.24,5.54-2.07,8.62-1.72l-.09,65.92c-.01,8.76-8.01,14.86-16.25,14.54-6.95-.26-13.79-4.96-11.69-7.72Z"/>
  <g>
    <g>
      <path class="st0" d="M293.95,229.25c-6.56,7.78-14.3,7.98-23.2,4.31l-18.41-26.73c-4.95-7.19-5.75-18.59.35-25.4l36.86-41.13c2.88-3.21,7.36-4.74,11.33-3.99,3.59.68,7.14,2.96,8.72,6.22l12.03,24.85c4.02,8.3,5.77,22.22.02,29.03l-27.71,32.86ZM297.93,157.33c4.54-2.41,7.14-7.42,6.34-12.31-.51-3.13-3.37-5.25-6.46-4.13-5.19,1.88-8.39,7.57-7.35,12.97.34,1.79,1.55,3.04,2.59,3.57,1.43.72,3.3.74,4.88-.1ZM280.61,177.04c4.16-2.92,6.03-8.36,4.6-13.03-.54-1.75-1.91-3.05-3.16-3.44-1.6-.5-3.23-.22-4.69.72-4.18,2.71-6.22,8.17-4.88,12.96.5,1.79,1.89,3.18,3.11,3.58,1.69.56,3.43.33,5.02-.79ZM317.6,194.74c4.1-2.59,6.32-7.67,5.24-12.22-.39-1.65-1.64-2.97-2.74-3.37-1.48-.55-2.97-.17-4.28.72-5.9,4.01-6.82,13.13-2.5,15.24,1.26.61,2.77.59,4.27-.36ZM261.13,198.75c4.67-2.88,6.97-8.69,5.61-13.77-.56-2.11-1.92-3.5-3.62-4.13-1.61-.6-3.44-.21-5.08.92-6.55,4.52-6.95,14.68-2.25,17.17,1.66.88,3.58.9,5.34-.19ZM305.86,201.93c-.31-1.6-1.36-2.89-2.29-3.39-1.39-.75-3.08-.63-4.44.23-3.96,2.49-6.3,7.22-5.5,11.82.29,1.7,1.44,3.23,2.55,3.65,5.25,1.95,10.89-5.99,9.68-12.3ZM287.99,222.18c-.35-1.76-1.44-3.18-2.5-3.63-1.54-.66-3.26-.46-4.56.47-3.8,2.75-5.84,7.79-4.62,12.3.45,1.66,1.55,2.84,2.79,3.31,4.4,1.67,10.26-5.57,8.9-12.45Z"/>
      <path class="st0" d="M254.54,175.45c-5.76,6.26-21.61,12.87-30.39,8.33l-11.58-6.6c-4.25-7.25-8.88-13.88-13.83-20.68l28.63-30.46c6.74-7.17,19.11-13.75,28.57-11.44l28.5,6.97c3.65.89,6.76,4.32,7.37,7.96.51,3.06-.84,6.28-2.97,8.59l-34.3,37.32ZM249.14,119.58c-1.31-3.01-10.22-2.27-13.85,4.18-.64,1.14-.66,2.51-.04,3.48.52.82,1.59,1.6,2.93,1.68,6.09.37,12.82-5.05,10.96-9.34ZM248.98,168.73c-2.51-4.36-12.14-2.29-15.76,4.41-.82,1.51-.98,3.15-.25,4.45.66,1.18,1.98,2.23,3.71,2.39,7.77.72,14.84-6.84,12.3-11.26Z"/>
      <path class="st0" d="M269.82,239.25c-1.67,2.6-10.2-2.34-12.25-3.56l-25.62-15.15-14.06-33.37c-.89-2.11-2.11-3.55-2.71-6.05l16.35,9.75c6.62,3.95,12.62,8.99,17.18,15.3l20.49,28.32c.86,1.19,1.42,3.51.61,4.76ZM240.25,215.08l.12-1.17c.19-1.76-8.64-11.65-11.41-10.24-.3.15-.55,1.01-.3,1.53,3.53,7.46,11.38,11.8,11.58,9.87ZM267.63,237.63c-.62-5.62-11.52-12.06-12.44-10.21-.16.32-.26,1.16.06,1.66,4.66,7.17,12.58,10.36,12.38,8.55Z"/>
    </g>
    <g>
      <path class="st0" d="M221.33,236.03c.95.02,1.85,1.41,1.97,2.39,2.86,3.33,5.37,6.59,6.99,10.58,2.99,7.4.53,15.18-6.01,19.78-2.59,1.82-5.3,3.17-8.31,4.64l-50.34,24.61c-6.8,3.32-13.51,5.45-21.22,5.01-7.05-.4-14.27-1.59-20.36-5.39l-28.3-17.65c-2.97-1.85-5.41-4.25-7.56-6.79-4.37-5.17-3.71-11.6.61-16.57,3.99-4.58,9.2-7.01,14.57-10l46.68-26.08c11.19-6.25,27.34-11.78,40.13-9.63,3.79.64,7.6,1.85,10.36,4.54,7.1,6.91,13.47,14.23,20.79,20.54ZM175.88,260.09c-2.2-5.27-15.65-5.61-22.93,1.94-1.48,1.53-2.04,3.62-1.39,5.48.48,1.38,1.94,2.73,3.86,3.31,10.46,3.18,23.02-4.58,20.46-10.72Z"/>
      <path class="st0" d="M223.65,237.45c-.7.43-1.69-1.13-1.81-1.85l-18.85-21.2c-11.62-13.08-19.06-28.59-24.37-45.26l-13.34-41.82c-.35-1.11.58-2.54,1.24-2.93,2.83-1.66,8.8,6.5,10.64,8.89l19.43,25.28c6.74,8.77,13.24,17.54,17.61,27.81l20.49,48.17c.88,2.07,4.04,11.86,1.57,12.91-2.93,1.24-9.6-7.33-12.61-10.01ZM209.87,187.53c1.85-1.53-6.42-15.2-8.29-14.01-2.19,1.39,6.43,15.55,8.29,14.01ZM202.82,202.49c.61-.9.39-2.36.08-3.27-2.36-6.78-5.96-13.1-11.14-17.95-.5-.47-1.52-.61-1.88-.38s-.6,1.25-.42,1.94c1.85,7.16,5.75,13.56,10.82,18.89.55.57,2.06,1.48,2.54.76Z"/>
      <path class="st0" d="M93.35,250.14c-10.47,3.62-21.14.86-24.88-10.23l-3.64-46.07c-1.54-12.38,5.59-24.18,13.97-32.67l56.7-34.88c7.93-4.88,18.77-6.03,25.96.64l16.72,48.51c1.82,13.4-4.07,25.49-13.68,34.61l-71.15,40.09ZM153.8,128.63c-4.15-4.21-16.11.87-19.49,10.29-.72,2.01-.21,4.12.88,5.41s3.05,1.9,5.11,1.65c10.17-1.26,18.13-12.65,13.5-17.34ZM91.51,169.31c.26-1.94-.75-3.91-2.07-4.73s-3.19-1.03-4.95-.37c-9.59,3.58-15.25,15.75-10.34,19.59,4.59,3.59,16-4.19,17.36-14.49ZM155.84,204.03c7.32-.36,13.44-5.52,15.32-12.23.74-2.65.28-5.34-1.39-7.54-1.22-1.61-3.66-3.11-6.36-3.16-7.48-.14-14.31,5.12-16.25,12.34-.76,2.83-.19,5.66,1.65,7.7,1.52,1.69,3.9,3.05,7.04,2.89ZM99.2,227.47c.2-2.27-1.03-4.51-2.43-5.53-6.27-4.52-19.34,4.76-20.24,16.36-.17,2.16.82,4.28,2.12,5.35,6.04,4.97,19.48-3.97,20.55-16.18Z"/>
    </g>
  </g>
</svg>