<?xml version="1.0" encoding="UTF-8"?>
<svg id="Layer_1" xmlns="http://www.w3.org/2000/svg" version="1.1" viewBox="0 0 1000.08 373.44">
  <!-- Generator: Adobe Illustrator 30.2.1, SVG Export Plug-In . SVG Version: 2.1.1 Build 1)  -->
  <defs>
    <style>
      .st0 {
        fill: #387ebc;
      }

      .st1 {
        fill: #242930;
      }

      .st2 {
        fill: #d9d8da;
      }

      .st3 {
        fill: #ebecef;
      }

      .st4 {
        fill: #edeef0;
      }

      .st5 {
        fill: #ecedf0;
      }

      .st6 {
        fill: #195a82;
      }

      .st7 {
        fill: #286da0;
      }
    </style>
  </defs>
  <path class="st1" d="M484.04,168.29l-31.49.24c-1.14,0-1.84-1.09-1.84-2.14v-76.56c0-1.34,1.06-2.45,2.36-2.44l29.64.16c12.91.07,24.67,6.99,32.03,17.6,9.65,13.92,9.58,32.62-.3,46.39-7.02,9.78-18.02,16.65-30.41,16.75ZM494.66,142.57c6.03-5.95,7.65-14.64,4.36-22.63-2.7-6.55-9.32-11.83-17.24-12.51-3.22-.28-6.26-.05-9.68-.01v41.28c8.29.48,16.34,0,22.56-6.12Z"/>
  <path class="st1" d="M694.13,135.86l-27.19.09.07,13.57,36.48.07c1.24,0,2.31.87,2.3,2.04l-.07,14.73c0,1.18-.96,2.12-2.22,2.12l-56.07-.02c-1.22,0-1.87-.93-1.87-2.08v-76.62c0-1.4,1.02-2.34,2.4-2.34l54.48.02c1.26,0,2.14,1.14,2.13,2.21l-.02,14.42c0,1.11-.88,2.29-2.06,2.29l-35.5.04v13.11s27.22.09,27.22.09c1.27,0,2.21.95,2.21,2.2l-.03,12.01c0,1.13-.89,2.04-2.26,2.05Z"/>
  <path class="st1" d="M595.82,143.81c7.44,7.23,18.44,7.05,26.44,1.32,1.18-.85,2.38-.67,3.22.54l9.19,13.27c1.02,1.47.06,2.92-1.32,3.82-12.13,7.88-27.35,9.52-41.35,3.03-11.58-5.37-20.99-16.89-23.22-30.62-2.72-16.67,4.45-33.09,18.23-42.07s32.75-9.14,46.75.54c1.14.79,1.49,2.36.72,3.47l-9.04,12.91c-.83,1.19-2.13,1.53-3.37.64-7.81-5.59-18.48-5.67-25.76.98-9.22,8.43-9.64,23.29-.5,32.18Z"/>
  <path class="st1" d="M553.55,168.47h-17.06c-1.22,0-2-.7-2-2.06v-76.66c0-1.33.88-2.29,2.08-2.29l16.25-.02c1.85,0,3.02,1.38,3.02,3.28l-.02,75.18c0,1.4-.71,2.57-2.26,2.57Z"/>
  <path class="st1" d="M626.37,227.64c-1.23,20.31-19.91,34.18-39.58,30.46-16.6-3.14-27.88-18.09-26.85-34.75,1.02-16.43,13.93-29.87,30.76-31.1,20.17-1.47,36.92,14.84,35.68,35.39ZM617.28,229.66c2.86-15.36-9.53-29.29-24.77-28.89-13.08.35-23.4,10.78-23.96,23.48s8.9,23.94,21.64,25.48,24.64-6.89,27.09-20.07Z"/>
  <path class="st1" d="M531.54,234.49c-.6-.76-2.49-.05-3.2-.04l-16.13.08-.22,22.5c-.23.88-8.39,1.41-8.4-.56l-.09-61.61c0-1.08.88-1.9,1.86-1.9l25.8.06c9.59.02,17.45,6.92,19.54,15.74,2.25,9.5-1.97,19.04-10.91,23.53l11.28,23.2c.39.8.09,1.6-.65,2.1-2.57.17-4.99.29-7.71-.14l-11.17-22.96ZM530.57,225.82c6.8.01,11.86-5.38,12.08-11.66.22-6.13-4.54-12.42-11.04-12.45l-19.44-.1v24.18s18.39.04,18.39.04Z"/>
  <path class="st1" d="M698.78,227.85l-28.93.16v21.04s35.5.03,35.5.03c2.48-.31,1.68,6.54,1.29,8.54l-43.87.09c-.91,0-1.6-.71-1.6-1.63v-61.26c0-1.21,1.06-1.87,2.13-1.87h41.14c3.91-.01,2.62,5.98,1.92,8.54l-36.5.12v17.66s28.91.17,28.91.17c.85,2.8.81,5.45,0,8.4Z"/>
  <path class="st1" d="M865.38,254.97c-20.44,11.26-41.64-6.51-38.12-10.4,1.08-1.19,4.55-4.73,6.12-3.08,7.68,8.08,19.81,12.21,29.32,4.99,3.37-2.56,5.14-7.12,3.04-10.9-4.76-8.59-32.33-7.63-36.37-20.76-2.59-8.4,1.6-16.79,9.68-20.36,11.37-5.02,24.75-1.94,33.19,7.15.82.88.53,2.08-.18,2.79l-2.9,2.87c-1.04,1.03-2.4.91-3.48-.05-6.51-5.78-15.6-9.31-23.66-4.54-3.4,2.01-5.56,6.6-3.41,10.13,4.94,8.13,30.76,7.07,35.56,20.02,3.14,8.47-.81,17.76-8.78,22.16Z"/>
  <path class="st1" d="M458.75,233.51l-.14,21.98c0,.67-.29,1.32-.54,1.63-.73.9-5.99.79-7.99.18l-.08-62.02c0-1.39.73-2.35,2.15-2.34l22.7.15c11.38.07,19.52,10.11,18.9,21.38s-9.06,18.94-19.74,18.98l-15.26.07ZM485.09,213.69c.29-6.5-4.88-12.03-10.95-12.04l-15.44-.04-.05,23.14c5.02.17,9.83.18,15.04.07,5.87-.13,11.11-4.81,11.39-11.13Z"/>
  <path class="st1" d="M731.38,205.05c-11.71,7.47-14.94,22.65-7.54,33.88,7.55,11.45,22.86,14.47,34.36,6.53.84-.58,2.62-1.62,3.42-.89s5.17,5.96,2.75,7.72c-10.78,7.82-25.23,8.6-36.73,1.87-16.6-9.72-21.23-31.3-10.91-47.04,10.38-15.85,32.26-19.83,47.68-8.49.93.68,1.1,1.94.57,2.83l-2.21,3.67c-.67,1.12-2.12,1.51-3.22.71-8.45-6.16-19.15-6.55-28.17-.8Z"/>
  <path class="st1" d="M801.04,254.87c0,1.29-.37,2-.78,2.34-.88.71-6.9.96-7.75-.38l-.14-55.19-18.33-.07c-1.02,0-1.79-.58-1.76-1.57.26-2.16-1.08-7.03,1.87-7.03l44.5-.02c3.89,0,2.63,6.28,1.92,8.48l-19.51.21-.02,53.23Z"/>
  <path class="st1" d="M618.3,268.17c-1.24-1.95,3.7-5.72,4.41-5.86,2.56-.49,4.93,5.07,10.92,2.49,2.12-.91,4.21-3.27,4.21-6.3l.14-64.41c0-1.67,8.04-1.58,8.44-.19l.13,64.11c.02,9.49-7.6,16.51-16.98,15.8-4.3-.33-8.74-1.68-11.28-5.65Z"/>
  <path class="st1" d="M260.39,279.13c-5.54,2.7-10.85,4-16.79,4.12-8.59.17-17.81-1.31-25.32-5.91-10.23-6.28-20.3-11.94-30.01-19.07-10.23-7.52-25.78-28.4-26.73-40.11l-3.97-48.78c-.99-12.21,8.27-28.93,15.44-33.4l56.98-35.51c7.42-4.62,21.35-6.2,29.72-4.19,5.26,1.06,9.43,3.85,12.71,8.08l20.45,26.36,25.38-26.97c4.97-5.28,9.95-9.76,16.67-12.74,5.39-1.94,11.37-3.97,17.21-2.51,10.24,2.55,20.2,4.31,30.3,7.71,10.43,3.51,19.74,11.4,25.18,20.84,5.01,8.68,8.51,17.38,12.86,26.24s6.07,24.61-.53,32.34l-29.99,35.08c-7.55,8.83-23.1,13.49-34.7,6.8l-24.52-14.14c1.79,4.71,3.69,8.73,4.8,13.35,3.82,15.94-6.4,28.92-20.28,35.69l-54.87,26.73Z"/>
  <path class="st6" d="M330.25,210.84c1.05,2.46,4,11.53,2.23,13.34-1.59,1.63-6.26-2.79-7.5-4.17l-25.72-28.36c-11.73-12.94-19.2-28.51-24.51-45.1l-13.41-41.88c-.35-1.1.44-2.69,1.13-3.12,2.67-1.65,8.58,6.26,10.16,8.32l21.17,27.62c6.36,8.29,12.31,16.62,16.42,26.27l20.04,47.07Z"/>
  <path class="st5" d="M299.36,177.66c.29,1.07-.23,2.21-.77,2.37-.48.14-1.43-.04-2.04-.63-5.48-5.3-9.55-12.25-11.43-19.66-.21-.84.22-1.97.71-2.11.52-.15,1.63.09,2.21.67,5.31,5.24,9.29,11.92,11.31,19.37Z"/>
  <path class="st3" d="M297.36,150.42c2.08-1.82,10.93,13.18,8.54,14.49s-10.68-12.62-8.54-14.49Z"/>
  <g>
    <path class="st0" d="M189.28,227.13c-10.37,3.53-20.62.96-24.74-9.89l-3.9-49.3c-.01-4.96,1.09-9.38,3.06-13.8,2.78-6.01,6.42-11.17,11.19-15.86l56.34-34.73c3.91-2.26,7.75-3.71,12.17-4.1,5.16-.31,10.07,1.03,13.95,4.56l16.8,48.86c.82,6.81-.26,13.2-3.01,19.38-2.68,5.73-6.2,10.64-10.95,14.93l-70.9,39.96Z"/>
    <path class="st4" d="M251.77,181.28c-3.25.14-5.89-1.16-7.43-3.17s-2.19-4.91-1.43-7.77c1.91-7.17,8.67-12.42,16.11-12.4,2.82,0,5.31,1.27,6.79,3.12,1.62,2.02,2.2,4.71,1.56,7.48-1.64,7.02-8.02,12.42-15.6,12.74Z"/>
    <path class="st4" d="M195.32,204.96c-1.19,12.25-15.02,21.08-20.95,15.86-5.55-4.88.58-19.69,12.38-22.98,2.32-.65,4.73-.18,6.37,1.19,1.44,1.21,2.44,3.47,2.2,5.93Z"/>
    <path class="st4" d="M250.28,105.96c3.97,5.11-4.06,16.47-14.55,17.33-2.1.17-3.92-.67-4.88-1.86-1.13-1.4-1.47-3.45-.83-5.38,3.29-9.99,16.33-15.16,20.27-10.1Z"/>
    <path class="st4" d="M187.61,146.86c-1.64,10.22-12.82,17.93-17.79,14.09s.68-16.69,10.99-20.01c1.86-.6,3.81-.25,5.05.71,1.38,1.07,2.09,3.12,1.76,5.2Z"/>
  </g>
  <g>
    <path class="st7" d="M259.91,275.79c-13.33,6.52-27.32,5.18-40-1.06l-27.66-17.42c-3.27-2.06-6.03-4.47-8.33-7.44-3.73-4.81-3.54-10.75.4-15.44s9.14-7.88,14.93-10.47l47.27-26.48c12.69-7.11,36.13-15.06,49.2-5.58l23.72,24.1c7.62,7.74,11.92,19.35,2.84,27.99-2.48,2.36-5.23,3.88-8.45,5.45l-53.91,26.36Z"/>
    <path class="st4" d="M272.1,237.22c2.33,6.56-10.41,14.03-21.02,10.77-1.9-.58-3.36-2.1-3.79-3.35-.67-1.93-.05-4.2,1.43-5.73,7.51-7.79,21.42-7.2,23.38-1.69Z"/>
  </g>
  <g>
    <path class="st6" d="M365.78,216.09c-1.46,2.77-9.81-1.97-11.65-3.06l-25.99-15.38-14.21-33.73c-.78-1.85-1.84-3.11-2.35-5.3l14.21,8.36c7.04,4.14,13.67,9.32,18.52,16.01l20.74,28.64c.81,1.11,1.33,3.3.71,4.46Z"/>
    <g>
      <path class="st7" d="M388.47,207.65c-5.5,6.48-14.73,6.13-21.79,2.88l-18.54-27.02c-5-7.29-5.34-18.49.73-25.25l36.7-40.87c2.83-3.15,7.23-4.76,11.18-3.99,3.41.67,7.04,2.92,8.56,6.07l12.38,25.57c3.91,8.08,5.37,21.84-.29,28.51l-28.95,34.1Z"/>
      <path class="st4" d="M357.58,175.77c-1.72,1.15-3.55,1.3-5.12.81s-2.94-1.78-3.53-3.67c-1.69-5.4.5-11.57,5.33-14.55,1.68-1.03,3.6-1.19,5.3-.5,1.4.56,2.69,2,3.21,3.87,1.42,5.1-.59,10.95-5.2,14.04Z"/>
      <path class="st4" d="M376.45,154.43c-1.74,1.16-3.6,1.26-5.32.55-1.17-.48-2.47-1.88-2.94-3.63-1.33-4.96.68-10.46,5-13.26,1.58-1.02,3.44-1.22,5.23-.51,1.17.46,2.48,1.88,2.97,3.66,1.3,4.84-.58,10.27-4.94,13.18Z"/>
      <path class="st4" d="M393.68,134.72c-1.78.84-3.52.69-4.94-.05-1.15-.6-2.27-1.93-2.59-3.65-1-5.33,1.87-10.91,6.82-13.08,1.6-.7,3.36-.64,4.88.17,1.08.58,2.22,2.01,2.52,3.72.9,5.1-1.79,10.58-6.69,12.88Z"/>
      <path class="st4" d="M379.49,211.09c-1.44,1.07-3.11,1.3-4.62.8-1.11-.37-2.43-1.66-2.85-3.34-1.19-4.77.75-9.94,4.8-12.7,1.37-.93,3.01-1.11,4.61-.48,4.05,1.59,4.27,11.11-1.95,15.72Z"/>
      <path class="st4" d="M396.49,191.1c-1.46.9-3.28,1.02-4.61.37-4.42-2.15-3.48-12.23,3.29-15.97,1.37-.75,2.97-.76,4.34-.15,4.09,1.85,3.68,11.62-3.02,15.74Z"/>
      <path class="st4" d="M413.73,171.95c-1.54.98-3.22,1.04-4.66.41-4.16-1.82-3.81-11.62,2.78-15.83,1.33-.85,3.14-.98,4.59-.36,4.21,1.79,3.87,11.6-2.71,15.78Z"/>
    </g>
    <g>
      <path class="st0" d="M350.46,152.42c-5.81,6.33-21.47,12.81-30.43,8.38l-11.07-6.61c-4.67-6.99-8.89-13.97-14.08-20.74l27.83-29.6c4.14-4.4,8.71-7.89,14.34-10.13,4.38-1.74,9.45-3.23,14.25-2.06l29.33,7.15c3.2.78,5.94,3.87,6.82,6.89s-.22,6.63-2.48,9.1l-34.5,37.62Z"/>
      <path class="st4" d="M345.3,149.79c-3.2,7.58-13.88,9.69-16.5,5.23-.72-1.22-.75-3.1-.11-4.46,3.33-7.02,13.21-9.38,16.21-5.19.73,1.03,1.06,2.83.4,4.42Z"/>
      <path class="st4" d="M345.33,99.85c-3.11,6.31-12.01,7.92-14.2,4.85-.71-.99-.87-2.48-.24-3.72,3.22-6.36,12.1-7.73,14.17-4.77.57.81.89,2.38.27,3.64Z"/>
    </g>
    <path class="st2" d="M363.79,214.62c.32,3.98-15.11-6.62-12.82-10.33,1.23-1.99,12.38,4.88,12.82,10.33Z"/>
    <path class="st2" d="M324.54,180.75c1.54-2.67,13.55,8.11,11.78,11.74-1.35,2.77-13.76-8.31-11.78-11.74Z"/>
  </g>
</svg>