<?xml version="1.0" encoding="UTF-8"?>
<svg id="Layer_1" xmlns="http://www.w3.org/2000/svg" version="1.1" viewBox="0 0 903.36 401.28">
  <!-- Generator: Adobe Illustrator 30.2.1, SVG Export Plug-In . SVG Version: 2.1.1 Build 1)  -->
  <defs>
    <style>
      .st0 {
        fill: #fff;
      }
    </style>
  </defs>
  <path class="st0" d="M0,401.28V0h903.36v401.28H0ZM521.9,145.5c7.36-7.23,18.36-7.23,26.36-1.51.62.45,2.33.72,2.72.17l9.63-13.64c.7-.99.26-2.72-.78-3.44-17.49-12.1-41.29-8.89-55.08,6.92-13.83,15.85-13.7,39.76.46,55.4,14.02,15.48,37.59,18.29,55.08,6.07.68-.48,1.17-2.24.69-2.93l-9.47-13.63c-.63-.91-2.07-1.05-3.01-.36-8.48,6.2-20.24,5.72-27.44-2.21-7.87-8.66-7.69-22.46.85-30.84ZM409.99,201.63c13.22-.11,24.83-7.67,31.78-18.52,9.22-14.39,8.26-33.13-2.35-46.51-7.53-9.5-18.91-15.52-31.1-15.57l-28.86-.11c-1.13,0-2.48.96-2.48,2.34v76.6c0,.93,1.2,2.02,1.99,2.02l31.03-.25ZM479.78,201.84c1.06,0,1.94-1.11,2.14-2.26v-75.78c0-1.62-1.26-2.64-2.69-2.87h-16.26c-1.1,0-2.3,1.11-2.3,2.39v76.49c0,1.19,1.21,2.04,2.21,2.04l16.9-.02ZM620.09,169.25c1.53,0,2.5-1.08,2.5-2.39l.02-11.54c0-.86-1.03-2.14-1.93-2.14l-27.71-.03v-13.37s35.73-.05,35.73-.05c1.04,0,2.06-1.72,2.06-2.55l-.02-13.98c0-1.04-1.19-2.27-2.36-2.27h-54.1c-1.33,0-2.55.92-2.55,2.35v76.56c0,1.02,1.12,2,2.09,2h56.11c.85,0,1.98-1.59,1.99-2.34l.02-14.58c0-.71-1.22-1.78-2.02-1.78h-36.94s0-13.9,0-13.9h27.11ZM277.99,185.02l34.48-37.61c2.25-2.45,3.33-5.98,2.41-9.07s-3.65-6.09-6.86-6.87l-29.3-7.16c-4.92-1.2-9.9.61-14.43,2.12-5.76,2.5-10.28,6.01-14.54,10.55l-27.5,29.26c4.97,6.84,9.51,13.49,13.85,20.68l11.6,6.61c8.87,4.36,24.51-2.21,30.28-8.51ZM116.59,259.86l71.08-40.05c4.71-4.3,8.19-9.09,10.87-14.76,2.8-6.25,3.92-12.71,3.06-19.59l-16.81-48.87c-7.57-6.52-18.04-5.29-26.05-.35l-56.6,34.86c-7.52,7.85-14.02,18.1-14.01,29.35l3.9,49.3c3.92,10.78,14.11,13.55,24.56,10.12ZM257.82,243.78l-20.21-47.5c-4.18-9.82-10.33-18.31-16.79-26.73l-20.37-26.56c-1.81-2.36-7.4-10.03-10.37-8.87-.67.26-1.58,2.19-1.35,2.9l13.46,42.05c5.31,16.58,12.74,32.19,24.47,45.13l25.51,28.13c1.3,1.43,5.79,5.82,7.65,4.67,2.08-1.29-.99-10.86-1.99-13.2ZM316.68,239.45l28.24-33.31c5.6-6.61,4.09-20.46.19-28.55l-12.17-25.2c-1.72-3.56-5.81-6.04-9.68-6.43s-7.75,1.34-10.39,4.26l-36.66,40.49c-5.26,7.7-5.88,17.88-.46,25.74l18.35,26.61c7.9,3.67,16.36,3.73,22.58-3.6ZM293.4,248.59c.18-1.56-.21-3.4-.96-4.44l-20.5-28.32c-6.93-9.57-22.33-18.86-33.26-24.73l4.15,9.27,12.61,29.89,27.61,16.25c1.29.76,10,5.09,10.36,2.07ZM187.57,308.3l53.52-26.12c3.04-1.49,5.76-3.07,8.21-5.2,9.78-8.53,5.24-20.71-2.7-28.7l-23.39-23.56c-2.91-2.93-7.59-3.77-11.52-4.26-11.69-1.46-27.3,3.84-37.42,9.49l-47.62,26.58c-5.52,3.08-10.89,5.54-14.82,10.46-3.67,4.6-4.32,10.34-.63,15.16,2.21,2.89,4.97,5.53,8.19,7.55l28.17,17.71c13.18,6.3,26.62,7.42,40.02.88ZM552.61,258.79c0-18.35-14.88-33.22-33.24-33.22s-33.24,14.87-33.24,33.22,14.88,33.22,33.24,33.22,33.24-14.87,33.24-33.22ZM656.9,238.73c9.1-6.17,20.15-5.89,28.86.41.89.64,2.41.38,2.9-.45l2.29-3.79c.74-1.22.11-2.48-1.02-3.28-14.11-9.89-33.29-7.32-44.31,5.38-11.27,12.98-10.69,32.08.77,44.54,11.4,12.4,30.95,13.95,44.26,3.85.71-.54.69-2.16.36-2.67l-3.25-5.01c-1.18.11-2.67.66-3.65,1.32-11.32,7.7-26.28,4.71-33.86-6.22-7.69-11.09-4.81-26.3,6.64-34.06ZM791.68,288.08c7.76-4.39,11.3-13.14,8.74-21.29-4.48-14.22-34.1-12.39-36.4-21.93-.93-3.85,1.27-7.48,4.67-9.24,3.91-2.03,8.53-2.41,12.79-1.12,7.26,2.2,11,7.49,12.64,6.67.81-.41,4.99-3.7,4.84-5.4-8.42-9.73-22.29-13.06-33.96-7.79-7.72,3.49-11.8,11.49-9.59,19.61,1.9,7.02,10.66,10.26,16.96,12.27l12.84,4.09c2.6.83,5.45,2.62,6.77,4.99,2.02,3.63.38,8.12-2.75,10.65-9.06,7.36-22.16,3.67-29.33-4.42-.54-.6-2.13-.95-2.69-.47l-4.03,3.47c-.58.5-.11,2.22.49,2.94,9.25,10.88,25.23,14.21,38.03,6.98ZM384.86,266.68c6.52-.04,11.26.19,16.73-.13,10.76-.63,18.56-9.98,18.35-20.33s-8.12-19.61-18.92-19.68l-22.96-.13c-.79,0-1.84,1.01-1.84,1.88l.03,62.27c3.06.66,5.26.64,8.39.03l.21-23.91ZM468.96,290.85c2.82.2,5.49.24,7.75-.05.66-.16.49-2.08.21-2.66l-11.01-22.5c8.7-4.49,13.14-13.68,10.98-23.26-1.94-8.62-9.69-15.84-19.24-15.88l-25.86-.1c-.86,0-1.97.87-1.97,1.85l.03,62.33c3.23.66,5.72.73,8.46-.15l.08-22.76,19.45-.04,11.11,23.23ZM544.28,301.02c2.3,3.91,6.14,5.35,10.22,5.95,9.25,1.37,18.13-5.29,18.14-15.06l.05-64.39c-.13-1.63-7.24-1.37-8.49-.52l-.05,64.9c0,3.14-2.44,5.56-4.52,6.37-5.82,2.27-8.63-3-10.41-2.69-1.3.23-5.26,3.92-4.94,5.42ZM625.38,259.31v-4.8c0-.91-1.05-1.84-2.15-1.84h-27.27s.01-17.59.01-17.59l35.9-.08c1.65-.23,1.63-8.05.19-8.56l-42.88-.03c-.86,0-1.75,1.04-1.75,1.87v61.12c0,.65,1.01,1.63,1.68,1.63l43.52-.04c.78-3,.8-5.54-.03-8.46l-36.64-.05.03-21.19h27.2c1.06.01,2.2-.99,2.2-1.99ZM727.07,288.68v-53.62s18.05-.02,18.05-.02c1.08,0,2.04-1.17,2.12-2.09v-4.31c0-.99-1.06-2.22-2.27-2.22h-44.47c-1.19,0-2.13,1.15-2.13,2.16v4.59c.13.8,1.09,1.87,2.03,1.87l18.14.04.02,54.41c0,.59,1.48,1.57,2.08,1.56l4.81-.05c.7,0,1.62-1.22,1.62-2.32Z"/>
  <path d="M116.59,259.86c-10.45,3.44-20.64.66-24.56-10.12l-3.9-49.3c-.01-11.25,6.49-21.5,14.01-29.35l56.6-34.86c8.01-4.93,18.48-6.17,26.05.35l16.81,48.87c.86,6.89-.26,13.34-3.06,19.59-2.68,5.67-6.16,10.46-10.87,14.76l-71.08,40.05ZM178.3,144.2c.71-1.92.46-4.22-.82-5.68-.85-.97-3.01-1.87-4.75-1.7-10.34,1.02-18.32,12.22-14.27,17.22,3.73,4.61,16.17.03,19.84-9.84ZM115.01,179.25c.27-1.75-.6-3.91-1.62-4.71-1.2-.95-3.29-1.34-4.89-.83-10.33,3.31-15.9,16.23-10.89,19.94,4.62,3.42,15.8-4,17.4-14.4ZM194.69,201.15c.71-2.98-.04-5.68-1.79-7.66-1.29-1.46-3.77-2.74-6.33-2.75-7.52,0-14.3,5.32-16.1,12.55-.67,2.69-.13,5.4,1.59,7.52,1.28,1.58,3.82,2.99,6.53,2.99,7.41.02,14.34-5.22,16.11-12.66ZM122.68,237.84c.29-2.31-.71-4.77-2-5.9-5.95-5.24-19.6,3.77-20.75,15.87-.22,2.32.96,4.68,2.26,5.7,6.15,4.81,19.05-4.1,20.49-15.67Z"/>
  <path d="M187.57,308.3c-13.39,6.54-26.84,5.42-40.02-.88l-28.17-17.71c-3.22-2.03-5.98-4.67-8.19-7.55-3.69-4.83-3.05-10.57.63-15.16,3.93-4.92,9.31-7.38,14.82-10.46l47.62-26.58c10.13-5.65,25.74-10.95,37.42-9.49,3.93.49,8.61,1.33,11.52,4.26l23.39,23.56c7.94,7.99,12.47,20.17,2.7,28.7-2.44,2.13-5.16,3.72-8.21,5.2l-53.52,26.12ZM199.49,269.97c-2.06-5.52-15.58-6.04-23.1,1.62-1.42,1.44-2.12,3.64-1.56,5.47.38,1.23,2,2.85,3.71,3.39,10.91,3.43,23.15-4.58,20.95-10.48Z"/>
  <path d="M409.99,201.63l-31.03.25c-.79,0-1.99-1.09-1.99-2.02v-76.6c0-1.38,1.36-2.34,2.49-2.34l28.86.11c12.19.05,23.58,6.07,31.1,15.57,10.61,13.38,11.57,32.13,2.35,46.51-6.95,10.85-18.55,18.41-31.78,18.52ZM422.38,174.45c5.06-6.23,5.96-14.49,2.63-21.8-2.89-6.34-9.4-11.23-17.06-11.9-3.2-.28-6.34-.15-9.75-.11v41.58c9.02.42,18.01-.19,24.18-7.78Z"/>
  <path d="M316.68,239.45c-6.22,7.34-14.68,7.27-22.58,3.6l-18.35-26.61c-5.43-7.87-4.8-18.04.46-25.74l36.66-40.49c2.64-2.92,6.59-4.64,10.39-4.26s7.96,2.87,9.68,6.43l12.17,25.2c3.9,8.09,5.42,21.94-.19,28.55l-28.24,33.31ZM321.15,167.22c7.45-3.74,8.47-13.77,4.16-16.26-1.19-.69-3.43-.86-4.68-.29-4.91,2.23-7.82,7.44-6.94,12.79.25,1.53,1.47,3.19,2.49,3.73,1.37.72,3.34.84,4.96.03ZM303.84,186.95c4.36-3.09,6.32-8.5,4.71-13.37-.51-1.54-1.85-2.92-2.99-3.32-1.29-.45-3.49-.23-4.66.53-4.46,2.9-6.61,8.43-5,13.51.49,1.56,1.93,2.98,3.08,3.39,1.32.46,3.5.23,4.86-.73ZM341.11,204.48c6.76-4.6,6.65-13.97,2.57-15.63-1.16-.47-3-.32-4.16.4-6.62,4.11-7.05,13.63-3,15.62,1.18.58,3.37.44,4.59-.39ZM284.94,208.28c4.53-3.1,6.61-8.76,5.15-13.89-.5-1.76-2.03-3.36-3.29-3.82-1.56-.57-3.82-.28-5.19.66-4.47,3.07-6.65,8.6-5.22,13.87.46,1.7,1.92,3.33,3.17,3.85,1.63.67,3.71.46,5.38-.68ZM329.2,211.32c-.28-1.38-1.62-3.01-2.66-3.37-1.17-.4-3.06-.22-4.18.49-4.17,2.66-6.41,7.66-5.3,12.48.31,1.33,1.65,2.8,2.63,3.19,4.36,1.73,11.03-5.29,9.51-12.8ZM306.87,243.58c6.19-4.84,5.83-13.83,1.92-15.48-1.27-.54-3.25-.33-4.37.45-6.6,4.58-6.4,14.28-2.06,15.85,1.25.45,3.29.14,4.52-.82Z"/>
  <path d="M277.99,185.02c-5.77,6.3-21.41,12.86-30.28,8.51l-11.6-6.61c-4.34-7.19-8.88-13.84-13.85-20.68l27.5-29.26c4.27-4.54,8.78-8.04,14.54-10.55,4.53-1.5,9.51-3.32,14.43-2.12l29.3,7.16c3.21.78,5.95,3.83,6.86,6.87s-.16,6.62-2.41,9.07l-34.48,37.61ZM272.72,132.35c.45-.9.19-2.85-.32-3.42-2.81-3.13-10.5-.89-13.78,4.49-.52.85-.57,2.75-.15,3.54,1.79,3.37,10.87,2.1,14.25-4.61ZM272.58,182.52c.65-1.39.38-3.48-.36-4.47-2.93-3.93-12.2-1.79-15.76,4.89-.81,1.53-.81,3.58.04,4.82,2.87,4.17,12.66,2.04,16.08-5.25Z"/>
  <path d="M620.09,169.25h-27.11s0,13.89,0,13.89h36.94c.8,0,2.02,1.07,2.02,1.78l-.02,14.58c0,.75-1.13,2.34-1.99,2.34h-56.11c-.96,0-2.09-.98-2.09-2v-76.56c0-1.43,1.22-2.35,2.55-2.35h54.1c1.17,0,2.36,1.23,2.36,2.27l.02,13.98c0,.83-1.02,2.55-2.06,2.55l-35.73.05v13.37s27.7.03,27.7.03c.91,0,1.94,1.28,1.93,2.14l-.02,11.54c0,1.31-.97,2.39-2.5,2.39Z"/>
  <path d="M521.9,145.5c-8.54,8.38-8.72,22.18-.85,30.84,7.2,7.93,18.97,8.4,27.44,2.21.94-.69,2.38-.55,3.01.36l9.47,13.63c.48.69,0,2.46-.69,2.93-17.48,12.22-41.05,9.41-55.08-6.07-14.17-15.64-14.29-39.55-.46-55.4,13.79-15.81,37.59-19.01,55.08-6.92,1.04.72,1.49,2.44.78,3.44l-9.63,13.64c-.39.55-2.09.27-2.72-.17-8-5.73-19-5.72-26.36,1.51Z"/>
  <path d="M257.82,243.78c1,2.35,4.07,11.91,1.99,13.2-1.86,1.16-6.35-3.23-7.65-4.67l-25.51-28.13c-11.74-12.94-19.17-28.55-24.47-45.13l-13.46-42.05c-.23-.71.69-2.63,1.35-2.9,2.97-1.16,8.56,6.51,10.37,8.87l20.37,26.56c6.46,8.42,12.61,16.91,16.79,26.73l20.21,47.5ZM226.32,183.64c-3.99-3.82-.52,7.93,5.61,13.37,3.73,3.31.79-7.24-5.61-13.37ZM226.67,210.13c-2.23-7.47-5.99-13.91-11.36-19.12-.4-.39-1.6-.74-2.07-.58-.38.12-.61,1.51-.51,1.91,1.92,7.38,5.9,14.18,11.31,19.48.49.48,1.73.87,2.2.6.38-.21.62-1.68.44-2.3Z"/>
  <path d="M479.78,201.84l-16.9.02c-1,0-2.21-.85-2.21-2.04v-76.49c0-1.28,1.19-2.39,2.3-2.39h16.26c1.43.22,2.69,1.24,2.69,2.87v75.78c-.2,1.15-1.09,2.26-2.14,2.26Z"/>
  <path d="M552.61,258.79c0,18.35-14.88,33.22-33.24,33.22s-33.24-14.87-33.24-33.22,14.88-33.22,33.24-33.22,33.24,14.87,33.24,33.22ZM543.92,258.68c0-13.6-11.03-24.62-24.64-24.62s-24.64,11.02-24.64,24.62,11.03,24.62,24.64,24.62,24.64-11.02,24.64-24.62Z"/>
  <path d="M468.96,290.85l-11.11-23.23-19.45.04-.08,22.76c-2.74.88-5.23.81-8.46.15l-.03-62.33c0-.98,1.1-1.85,1.97-1.85l25.86.1c9.55.04,17.3,7.26,19.24,15.88,2.16,9.58-2.29,18.77-10.98,23.26l11.01,22.5c.28.58.45,2.5-.21,2.66-2.26.29-4.93.25-7.75.05ZM456.93,259.22c7.08-.02,12.2-5.97,12-12.55-.19-6.35-5.47-11.82-12.19-11.84l-18.37-.03v24.46s18.55-.04,18.55-.04Z"/>
  <path d="M625.38,259.31c0,1-1.14,2-2.2,2h-27.2s-.03,21.18-.03,21.18l36.64.05c.84,2.91.81,5.46.03,8.46l-43.52.04c-.67,0-1.67-.98-1.67-1.63v-61.12c0-.83.89-1.87,1.75-1.87l42.88.03c1.44.51,1.46,8.33-.19,8.56l-35.9.08v17.59s27.25,0,27.25,0c1.1,0,2.16.92,2.16,1.84v4.8Z"/>
  <path d="M791.68,288.08c-12.79,7.23-28.78,3.9-38.03-6.98-.61-.71-1.07-2.44-.49-2.94l4.03-3.47c.55-.48,2.15-.13,2.69.47,7.18,8.09,20.28,11.78,29.33,4.42,3.12-2.53,4.77-7.02,2.75-10.65-1.32-2.37-4.17-4.17-6.77-4.99l-12.84-4.09c-6.29-2.01-15.05-5.25-16.96-12.27-2.2-8.12,1.87-16.13,9.59-19.61,11.67-5.27,25.54-1.95,33.96,7.79.15,1.7-4.03,5-4.84,5.4-1.64.82-5.38-4.47-12.64-6.67-4.26-1.29-8.88-.91-12.79,1.12-3.39,1.76-5.6,5.39-4.67,9.24,2.3,9.54,31.92,7.71,36.4,21.93,2.57,8.15-.98,16.91-8.74,21.29Z"/>
  <path d="M384.86,266.68l-.21,23.91c-3.13.62-5.33.64-8.39-.03l-.03-62.27c0-.87,1.05-1.89,1.84-1.88l22.96.13c10.8.06,18.72,9.38,18.92,19.68s-7.6,19.7-18.35,20.33c-5.47.32-10.21.09-16.73.13ZM400.25,258.19c6.49-.04,11.31-6,11.16-11.93s-5.05-11.35-11.26-11.38l-15.39-.06v23.46s15.49-.09,15.49-.09Z"/>
  <path d="M656.9,238.73c-11.46,7.76-14.34,22.97-6.64,34.06,7.58,10.93,22.54,13.92,33.86,6.22.97-.66,2.47-1.21,3.65-1.32l3.25,5.01c.33.51.35,2.13-.36,2.67-13.31,10.1-32.86,8.55-44.26-3.85-11.45-12.45-12.03-31.56-.77-44.54,11.02-12.7,30.2-15.27,44.31-5.38,1.14.8,1.76,2.06,1.02,3.28l-2.29,3.79c-.5.83-2.01,1.09-2.9.45-8.7-6.3-19.76-6.57-28.86-.41Z"/>
  <path d="M293.4,248.59c-.35,3.02-9.06-1.31-10.36-2.07l-27.61-16.25-12.61-29.89-4.15-9.27c10.93,5.86,26.33,15.16,33.26,24.73l20.5,28.32c.75,1.04,1.14,2.89.96,4.44ZM252.02,213.57c-.96,4.07,10.36,13.84,11.67,11.43,1.82-3.34-10.93-14.55-11.67-11.43ZM280.2,236.82c-5.05-1.96.54,7.81,9.08,10.9,4.81,1.74,0-7.38-9.08-10.9Z"/>
  <path d="M727.07,288.68c0,1.11-.93,2.31-1.62,2.32l-4.81.05c-.6,0-2.08-.97-2.08-1.56l-.02-54.41-18.14-.04c-.94,0-1.9-1.07-2.03-1.87v-4.59c0-1,.94-2.16,2.13-2.16h44.47c1.21,0,2.27,1.23,2.27,2.22v4.31c-.08.92-1.05,2.09-2.13,2.09l-18.04.02v53.62Z"/>
  <path d="M544.28,301.02c-.32-1.5,3.64-5.2,4.94-5.42,1.78-.31,4.59,4.96,10.41,2.69,2.08-.81,4.52-3.23,4.52-6.37l.05-64.9c1.24-.85,8.35-1.11,8.49.52l-.05,64.39c0,9.76-8.89,16.42-18.14,15.06-4.08-.6-7.92-2.04-10.22-5.95Z"/>
  <path class="st0" d="M194.69,201.15c-1.77,7.44-8.7,12.68-16.11,12.66-2.7,0-5.25-1.41-6.53-2.99-1.72-2.12-2.26-4.83-1.59-7.52,1.8-7.23,8.58-12.55,16.1-12.55,2.55,0,5.03,1.28,6.33,2.75,1.75,1.98,2.5,4.68,1.79,7.66Z"/>
  <path class="st0" d="M122.68,237.84c-1.45,11.56-14.34,20.47-20.49,15.67-1.3-1.01-2.48-3.38-2.26-5.7,1.15-12.1,14.8-21.11,20.75-15.87,1.29,1.14,2.29,3.59,2,5.9Z"/>
  <path class="st0" d="M178.3,144.2c-3.67,9.87-16.11,14.45-19.84,9.84-4.04-5,3.93-16.2,14.27-17.22,1.74-.17,3.9.72,4.75,1.7,1.28,1.46,1.53,3.76.82,5.68Z"/>
  <path class="st0" d="M115.01,179.25c-1.6,10.4-12.78,17.82-17.4,14.4-5-3.71.56-16.63,10.89-19.94,1.59-.51,3.68-.13,4.89.83,1.02.81,1.89,2.96,1.62,4.71Z"/>
  <path class="st0" d="M199.49,269.97c2.2,5.9-10.04,13.91-20.95,10.48-1.71-.54-3.33-2.16-3.71-3.39-.56-1.83.14-4.03,1.56-5.47,7.52-7.65,21.03-7.13,23.1-1.62Z"/>
  <path class="st0" d="M422.38,174.45c-6.17,7.59-15.16,8.19-24.19,7.78v-41.58c3.42-.03,6.56-.17,9.76.11,7.66.67,14.18,5.56,17.06,11.9,3.33,7.31,2.43,15.57-2.63,21.8Z"/>
  <path class="st0" d="M284.94,208.28c-1.67,1.14-3.75,1.35-5.38.68-1.25-.51-2.71-2.15-3.17-3.85-1.43-5.27.75-10.8,5.22-13.87,1.37-.94,3.63-1.23,5.19-.66,1.26.46,2.79,2.05,3.29,3.82,1.46,5.13-.61,10.79-5.15,13.89Z"/>
  <path class="st0" d="M303.84,186.95c-1.36.96-3.54,1.19-4.86.73-1.15-.4-2.59-1.83-3.08-3.39-1.61-5.09.54-10.61,5-13.51,1.16-.76,3.37-.98,4.66-.53,1.14.4,2.48,1.78,2.99,3.32,1.6,4.88-.35,10.29-4.71,13.37Z"/>
  <path class="st0" d="M321.15,167.22c-1.62.81-3.59.69-4.96-.03-1.02-.54-2.24-2.2-2.49-3.73-.88-5.35,2.03-10.56,6.94-12.79,1.25-.57,3.49-.4,4.68.29,4.31,2.49,3.29,12.52-4.16,16.26Z"/>
  <path class="st0" d="M329.2,211.32c1.52,7.51-5.15,14.53-9.51,12.8-.98-.39-2.32-1.86-2.63-3.19-1.12-4.83,1.13-9.82,5.3-12.48,1.12-.72,3.01-.89,4.18-.49,1.04.36,2.38,1.98,2.66,3.37Z"/>
  <path class="st0" d="M341.11,204.48c-1.22.83-3.41.97-4.59.39-4.04-1.99-3.61-11.51,3-15.62,1.16-.72,2.99-.87,4.16-.4,4.08,1.66,4.2,11.03-2.57,15.63Z"/>
  <path class="st0" d="M306.87,243.58c-1.23.96-3.28,1.27-4.52.82-4.34-1.56-4.53-11.27,2.06-15.85,1.13-.78,3.1-.99,4.37-.45,3.91,1.65,4.28,10.64-1.92,15.48Z"/>
  <path class="st0" d="M272.58,182.52c-3.41,7.28-13.21,9.41-16.08,5.25-.85-1.24-.85-3.3-.04-4.82,3.56-6.68,12.83-8.82,15.76-4.89.74.99,1.01,3.08.36,4.47Z"/>
  <path class="st0" d="M272.72,132.35c-3.38,6.71-12.46,7.97-14.25,4.61-.42-.79-.37-2.68.15-3.54,3.28-5.38,10.97-7.62,13.78-4.49.51.57.78,2.52.32,3.42Z"/>
  <path class="st0" d="M226.67,210.13c.18.62-.06,2.08-.44,2.3-.47.26-1.71-.12-2.2-.6-5.41-5.3-9.39-12.1-11.31-19.48-.1-.4.13-1.79.51-1.91.47-.15,1.68.2,2.07.58,5.37,5.2,9.14,11.65,11.36,19.12Z"/>
  <path class="st0" d="M226.32,183.64c6.4,6.13,9.34,16.69,5.61,13.37-6.13-5.45-9.6-17.19-5.61-13.37Z"/>
  <ellipse class="st0" cx="519.28" cy="258.68" rx="24.64" ry="24.62"/>
  <path class="st0" d="M456.93,259.22l-18.54.04v-24.46s18.36.03,18.36.03c6.72.01,12,5.48,12.19,11.84.2,6.57-4.92,12.53-12,12.55Z"/>
  <path class="st0" d="M400.25,258.19l-15.49.09v-23.46s15.38.06,15.38.06c6.22.03,11.11,5.49,11.26,11.38s-4.67,11.89-11.16,11.93Z"/>
  <path class="st0" d="M280.2,236.82c9.07,3.52,13.89,12.64,9.08,10.9-8.54-3.09-14.13-12.87-9.08-10.9Z"/>
  <path class="st0" d="M252.02,213.57c.74-3.11,13.49,8.1,11.67,11.43-1.31,2.41-12.63-7.37-11.67-11.43Z"/>
</svg>