<?xml version="1.0" encoding="UTF-8"?>
<svg id="Layer_1" xmlns="http://www.w3.org/2000/svg" version="1.1" viewBox="0 0 1000.08 1000.08">
  <!-- Generator: Adobe Illustrator 30.2.1, SVG Export Plug-In . SVG Version: 2.1.1 Build 1)  -->
  <defs>
    <style>
      .st0 {
        fill: #1e435c;
      }

      .st1 {
        fill: #387ebc;
      }

      .st2 {
        fill: #d0d1d2;
      }

      .st3 {
        fill: #242930;
      }

      .st4 {
        fill: #195a82;
      }

      .st5 {
        fill: #85878b;
      }

      .st6 {
        fill: #286da0;
      }
    </style>
  </defs>
  <path class="st2" d="M612.52,549.93c-.44.32-.86.68-1.25,1.07-.86-.73-.93-1.39-.86-2.01.27-.65.59-.64.96,0,.82.18.9.8,1.14.94Z"/>
  <path class="st6" d="M769.64,560.76c-15.16,17.78-40.67,17.12-59.74,7.75l-49.2-70.52c-5.44-7.79-8.09-16.44-10.35-25.49-3.29-17.52.34-34.87,11.03-49.21l97.83-108.27c4.28-4.74,8.96-8.12,14.39-10.94,16.13-8.39,32.46-.28,42.53,13.34l33.6,70.06c11.28,23.51,15.23,56.4,0,79.34l-80.1,93.94ZM784.6,359.62c19.53-9.79,23.71-37.27,11.4-44.92-4.35-2.71-9.36-2.84-13.87-.82-13.21,5.91-21.17,20.81-18.86,35.12.78,4.87,3.85,8.78,6.77,10.46,4.4,2.53,9.77,2.56,14.56.15ZM736.59,414.21c12.11-8.17,17.52-23.77,13.21-37.29-1.5-4.71-5.26-8.13-8.68-9.34-4.5-1.59-9.07-.87-13.12,1.69-12.2,7.73-17.92,23.45-13.74,37.2,1.41,4.65,4.93,8.07,7.98,9.29,4.79,1.92,9.96,1.4,14.35-1.55ZM839.25,462.43c18.14-11.52,19.09-38.82,7.12-43.45-4.23-1.64-8.7-.96-12.38,1.4-18.02,11.56-18.81,38.72-7.19,43.32,4.11,1.63,8.56,1.2,12.45-1.27ZM684.68,472.91c12.63-8.48,18.26-24.77,14.08-38.91-1.55-5.25-5.5-9.1-9.52-10.48-4.9-1.67-9.91-.8-14.34,2.13-12.27,8.13-18.17,24.14-14.31,38.35,1.45,5.32,5.25,9.38,9.19,10.89,4.91,1.89,10.1,1.25,14.9-1.98ZM791.48,515.33c11.93-7.13,17.92-21.56,15.01-34.77-.99-4.48-4.33-7.8-7.19-8.88-4.26-1.61-8.73-.82-12.35,1.47-17.46,11.03-19.52,37.59-7.74,42.99,3.89,1.78,8.23,1.6,12.26-.81ZM744.82,570.3c16.84-12.39,17.1-38.7,4.98-43.39-4.03-1.56-8.48-.87-12.22,1.67-17.3,11.81-17.8,38.94-5.75,43.69,4.49,1.77,8.93,1.01,12.98-1.97Z"/>
  <path class="st1" d="M664.7,408.89c-15.57,16.92-58.71,35.07-82.72,22.93l-31.6-17.84c-11.85-19.62-24.26-38.2-38.45-57.27l82.11-86.9c16.28-17.23,50.85-33.85,73.58-28.31l81.57,19.88c5.88,1.43,10.75,7.21,14.15,11.51,8.62,10.91,3.22,25.31-5.1,34.35l-93.54,101.64ZM650.76,255c-5.09-9.79-29.68-5.59-39.24,11.55-1.68,3.01-1.7,7.04-.03,10.01,1.15,2.05,4.09,4.16,7.69,4.52,19.08,1.88,37.09-15.46,31.58-26.08ZM650.28,402.6c2.21-4.6,1.93-9.37-.51-13.08-7.54-11.49-35.33-5.45-44.43,14.11-2.04,4.39-1.8,9.2.65,12.84,7.66,11.39,35.01,5.47,44.29-13.86Z"/>
  <path class="st4" d="M558.68,428.2c-.92-1.45-.48-1.99.98-.98,13.96,7.97,27.76,14.94,40.99,24.03,17.46,12.01,34.96,24.56,47.48,41.84l56.83,78.5c2.46,3.39,3.53,8.74,2.54,12.14s-5.14,2.61-7.83,2.64c-8.22-2.24-15.36-5.48-22.79-9.87l-73.47-43.38-39.01-92.57c-1.91-4.54-4.42-8.11-5.71-12.36ZM593.75,486.76c-5.52,8.16,27.28,39.44,32.31,32.29,5.63-8-27.44-39.5-32.31-32.29ZM666.39,551.72c-.61.88-.92,3.37-.06,4.82,6.82,11.45,17.78,20.59,30.32,25.29,1.72.65,4.23.04,4.83-.91,5.15-8.13-30.22-36.23-35.09-29.2Z"/>
  <path class="st0" d="M559.66,427.22l-.98.98c-1.01-.7-1.24-1.25-1.27-2.17-.04-1.41,2.51,1.33,2.25,1.19Z"/>
  <path class="st5" d="M611.37,548.99c-.12-.03-.41,0-.96,0-.54.14-1.1-.31-.9-.54.49-.58,1.06-.65,1.38-.42.35.25.6.47.48.96Z"/>
  <path class="st3" d="M612.52,549.93c-.96.59-1.4.18-1.14-.94-.79-.64-1.11-.64-.96,0,.93.44,1.55,1.18.86,2.01,3.99,10.65,8.75,20.82,11.87,32.29,5.57,20.5,3.07,41.32-8.19,59.51-14.31,23.11-30.28,33.11-54.3,44.79l-146.24,71.13c-33.02,16.06-83.75,12.36-112.86-5.77l-74.78-46.57c-10.21-6.36-18.53-13.78-26.61-22.58-15.23-16.58-29.05-33.57-39.58-53.67-6.67-12.73-14.38-25.92-15.57-40.63l-11.1-136.47c-2.55-31.34,19.87-68.86,42.15-90.06l155.41-95.76c23.11-14.24,54.76-17.73,80.81-13.52,14.99,2.65,27.47,9.77,36.88,21.89l57.4,73.96,76.05-80.84c12.86-13.67,27.56-23.91,44.92-30.9,13.57-4.41,27.78-8.43,42.02-4.97l83.75,20.35c26.19,10.46,58.66,35.75,70.91,61.12l33.28,68.89c6.84,14.17,10.81,28.94,11.02,44.92.2,14.96-1.9,32-11.91,43.78l-81.42,95.83c-7.57,8.91-17.4,15.11-27.47,20.37-16.91,8.84-36.26,11.15-54.46,5.8-8.85-2.6-16.41-6.62-24.27-11.18l-56.45-32.76ZM664.7,408.89l93.54-101.64c8.32-9.04,13.73-23.43,5.1-34.35-3.4-4.3-8.27-10.08-14.15-11.51l-81.57-19.88c-22.74-5.54-57.31,11.08-73.58,28.31l-82.11,86.9c14.19,19.07,26.6,37.65,38.45,57.27l31.6,17.84c24.01,12.13,67.15-6.01,82.72-22.93ZM221.83,614.09l194.34-109.59c26.17-23.59,43.44-58.7,38.6-94.64l-46.31-134.62c-20.76-17.83-47.74-14.62-70.2-1.84l-156.45,96.36c-21.08,20.76-40.25,51.99-39.25,82.53l10.58,134.44c10.72,30.15,40.15,37.97,68.7,27.35ZM609.93,571.64l-53.11-126.3c-9.8-23.3-37.59-64.7-53.37-85.14l-60.11-77.81c-3.01-3.89-15.83-18.07-20.83-13.48-3.43,3.14-3.15,7.83-1.78,12.06l35.79,110.13c12.51,46.45,35.14,89.69,67.43,125.32l70.64,77.95c3.27,3.61,16.7,16.57,20.96,12.04,4.51-4.79-2.66-27.73-5.63-34.77ZM769.64,560.76l80.1-93.94c15.23-22.93,11.28-55.83,0-79.34l-33.6-70.06c-10.07-13.61-26.41-21.72-42.53-13.34-5.43,2.82-10.1,6.2-14.39,10.94l-97.83,108.27c-10.69,14.34-14.32,31.68-11.03,49.21,2.25,9.06,4.91,17.7,10.35,25.49l49.2,70.52c19.06,9.36,44.57,10.02,59.74-7.75ZM558.68,428.2c1.29,4.25,3.8,7.82,5.71,12.36l39.01,92.57,73.47,43.38c7.43,4.39,14.57,7.63,22.79,9.87,2.69-.03,6.84.76,7.83-2.64s-.08-8.75-2.54-12.14l-56.83-78.5c-12.52-17.29-30.02-29.84-47.48-41.84-13.23-9.1-27.03-16.07-40.99-24.03.26.15-2.29-2.59-2.25-1.19.03.92.26,1.47,1.27,2.17ZM414.44,749.03l141.43-68.97,17.88-9.35c21.36-11.17,34.21-33.72,24.54-57.92-4.31-10.78-10.54-20.56-18.94-29.02l-65.47-65.93c-8.02-8.08-20.68-10.09-31.46-11.52-33-4.37-73.53,11.03-102.84,26.05l-129.82,73.09c-16.74,7.33-35.21,18.41-45.21,33.69-15.34,23.42,4.69,45.56,23.96,57.73l76.94,48.58c34.5,17.17,73.63,20.81,108.99,3.56Z"/>
  <path class="st4" d="M609.93,571.64c2.96,7.04,10.13,29.99,5.63,34.77-4.26,4.53-17.69-8.43-20.96-12.04l-70.64-77.95c-32.29-35.63-54.92-78.87-67.43-125.32l-35.79-110.13c-1.37-4.23-1.65-8.92,1.78-12.06,5-4.59,17.82,9.59,20.83,13.48l60.11,77.81c15.79,20.43,43.57,61.84,53.37,85.14l53.11,126.3ZM518.88,403.27c-.74.42-1.45,2.51-1.07,3.91,3.65,13.32,10.79,25.59,20.64,35.02,1.12,1.08,3.16,1.49,3.88.85,5.7-5.08-17.18-43.32-23.45-39.77ZM522.91,484.09c2.58-2.24,1.01-7.8,0-10.76-5.79-17.09-14.83-32.65-27.16-45.68-2.1-2.22-5.99-5.87-8.94-4.09-2.46,1.48-1.43,6.87-.56,9.55,5.77,17.87,15.23,34.13,28.15,47.64,1.84,1.92,5.98,5.53,8.5,3.34Z"/>
  <path class="st1" d="M221.83,614.09c-28.55,10.62-57.97,2.8-68.7-27.35l-10.58-134.44c-1-30.55,18.17-61.77,39.25-82.53l156.45-96.36c22.46-12.79,49.44-15.99,70.2,1.84l46.31,134.62c4.84,35.95-12.42,71.05-38.6,94.64l-194.34,109.59ZM389.68,299.52c2.61-5.51,3.34-11.86.47-17.11-8.56-15.66-44.25-3.55-55.64,23.27-2.65,6.24-2.69,13.37,1.74,18.17,11.14,12.07,42.21-.7,53.43-24.33ZM216.6,391.64c.27-4.82-1.28-9.43-4.45-12.11-3.36-2.84-8.13-3.62-12.83-2.55-26.26,5.99-45.55,43.59-31.82,55.05,14.1,11.78,47.63-14.02,49.1-40.39ZM435.78,454.73c2.31-8.21.91-16.04-3.92-22.14-4.1-5.17-11.35-8.69-19.38-8.54-20.2.37-38.8,15.11-43.56,34.71-1.87,7.69-.42,15.25,4.5,21.28,3.87,4.74,10.81,8.13,18.49,8.12,19.86-.03,38.37-13.87,43.87-33.43ZM237.53,548.6c-1-9.32-8.35-15.65-17.79-15.25-23.97,1-49.54,32.44-44.41,55.15,1.76,7.77,8.2,12.78,16.09,12.83,23.3.13,48.65-29.11,46.11-52.73Z"/>
  <path class="st6" d="M414.44,749.03c-35.36,17.24-74.49,13.61-108.99-3.56l-76.94-48.58c-19.27-12.17-39.3-34.31-23.96-57.73,10-15.27,28.47-26.36,45.21-33.69l129.82-73.09c29.31-15.02,69.85-30.42,102.84-26.05,10.78,1.43,23.43,3.44,31.46,11.52l65.47,65.93c8.4,8.46,14.64,18.24,18.94,29.02,9.67,24.2-3.19,46.75-24.54,57.92l-17.88,9.35-141.43,68.97ZM440.42,662.7c5.37-4.06,9.46-9.42,9.57-15.84.3-18.52-39.09-22.64-62.44-2.32-4.61,4.01-7.93,9.65-7.15,15.62,2.2,16.88,37.4,19.63,60.02,2.53Z"/>
</svg>